<svg width="257" height="166" viewBox="0 0 257 166" fill="none" xmlns="http://www.w3.org/2000/svg">
<path d="M251.164 68.938H192.594L107.286 152.246C107.286 152.246 159.853 161.704 201.325 132.419C242.797 103.134 251.164 68.938 251.164 68.938Z" fill="url(#paint0_linear_69_1517)"/>
<path d="M19.5164 29.9152C10.7047 21.3765 3.61805 0 3.61805 0C3.61805 0 0.876953 9.0106 0.876953 24.5088C0.876953 40.0071 3.37695 50.2792 3.37695 50.2792L50.877 50.2479C50.877 50.2479 40.5315 50.2792 19.5164 29.9152Z" fill="#000"/>
<path d="M256.257 50.113L3.37695 50.2792C3.37695 50.2792 6.93524 79.2101 28.7065 104.771C50.4778 130.333 69.0872 138.786 69.0872 138.786L50.4264 165.161C50.4264 165.161 81.8198 165.888 100.555 156.43C119.29 146.971 149.848 114.594 149.848 114.594L192.671 68.98H251.164C251.164 68.98 253.08 63.3456 254.074 59.6616C255.069 55.9776 256.257 50.113 256.257 50.113Z" fill="#000"/>
<circle cx="142.301" cy="83.0366" r="10.6426" fill="white"/>
<defs>
<linearGradient id="paint0_linear_69_1517" x1="179.225" y1="68.938" x2="179.225" y2="153.703" gradientUnits="userSpaceOnUse">
<stop stop-color="white"/>
<stop offset="1" stop-color="#818CF8"/>
</linearGradient>
</defs>
</svg>
